# xmcd
#
# Track frame offsets: 
#        150
#        37848
#        38698
#        41283
#        51563
#        73845
#        84776
#        97331
#        113113
#        138319
#        146317
#        149152
#        159519
#        170834
#        185403
#        201331
#        210442
#        212808
#        218793
#        230744
#        232199
#        235431
#        238990
#        248460
#        252576
#        253885
#        269644
#        287673
#        299283
#
# Disc length: 4237 seconds
#
# Revision: 0
# Processed by: cddbd v1.5.2PL0 Copyright (c) Steve Scherf et al.
# Submitted via: ExactAudioCopy v0.95b3
#
DISCID=d1108b1d
DTITLE=The Beatles  - AB  Road - Complete Purple Chick Set v1.1 Jan.23
DTITLE=Various Artist - D4  FLAC
DYEAR=1900
DGENRE=
TTITLE0=Improvisation 23.61
TTITLE1=Happiness Runs 23.62
TTITLE2=It Blew Again 23.63
TTITLE3=Shazam! 23.64
TTITLE4=Dig A Pony 23.65
TTITLE5=Get Back 23.66
TTITLE6=Get Back 23.67
TTITLE7=Get Back 23.68
TTITLE8=Get Back 23.69
TTITLE9=Get Back 23.70
TTITLE10=Get Back 23.71
TTITLE11=Get Back 23.72
TTITLE12=Get Back 23.73
TTITLE13=Get Back 23.74
TTITLE14=Get Back 23.75
TTITLE15=Get Back 23.76
TTITLE16=I'll Get You 23.77
TTITLE17=Get Back 23.78
TTITLE18=Get Back 23.79
TTITLE19=I've Got A Feeling 23.80
TTITLE20=Help! 23.81
TTITLE21=Please Please Me 23.82
TTITLE22=Let It Be 23.83
TTITLE23=The Long And Winding Road 23.84
TTITLE24=Get Back 23.79P
TTITLE25=Get Back 23.79P
TTITLE26=Get Back 23.29P
TTITLE27=Get Back 23.79P
TTITLE28=Dialogue
EXTD=
EXTT0=
EXTT1=
EXTT2=
EXTT3=
EXTT4=
EXTT5=
EXTT6=
EXTT7=
EXTT8=
EXTT9=
EXTT10=
EXTT11=
EXTT12=
EXTT13=
EXTT14=
EXTT15=
EXTT16=
EXTT17=
EXTT18=
EXTT19=
EXTT20=
EXTT21=
EXTT22=
EXTT23=
EXTT24=
EXTT25=
EXTT26=
EXTT27=
EXTT28=
PLAYORDER=
